<?xml version="1.0" ?><svg viewBox="0 0 25 25" xmlns="http://www.w3.org/2000/svg"><title/><g fill="white" data-name="25" id="_25"><path d="M13.39,4.21h.11a.5.5,0,0,0,.11-1A9.56,9.56,0,0,0,11.5,3a.5.5,0,0,0,0,1A8.58,8.58,0,0,1,13.39,4.21Z"/><path d="M16.13,5.37a.5.5,0,0,0,.54-.84,9.53,9.53,0,0,0-1-.54.5.5,0,1,0-.45.9A8.51,8.51,0,0,1,16.13,5.37Z"/><path d="M20.85,11.15a.5.5,0,0,0-.71,0l-2,2a.5.5,0,1,0,.71.71L20,12.72A8.5,8.5,0,1,1,9.61,4.21a.5.5,0,1,0-.22-1A9.5,9.5,0,1,0,21,12.7l1.16,1.16a.5.5,0,0,0,.71-.71Z"/></g></svg>